<?xml version="1.0" standalone="no"?>
<!DOCTYPE svg PUBLIC "-//W3C//DTD SVG 20010904//EN"
 "http://www.w3.org/TR/2001/REC-SVG-20010904/DTD/svg10.dtd">
<svg version="1.0" xmlns="http://www.w3.org/2000/svg"
 width="474.000000pt" height="197.000000pt" viewBox="0 0 474.000000 197.000000"
 preserveAspectRatio="xMidYMid meet">

<g transform="translate(0.000000,197.000000) scale(0.100000,-0.100000)"
fill="#000000" stroke="none">
<path d="M670 1848 c-91 -32 -155 -72 -228 -142 -272 -260 -350 -759 -180
-1151 80 -183 229 -339 382 -397 75 -29 234 -36 311 -13 77 22 117 43 193 100
126 95 236 274 289 470 24 91 27 117 27 285 1 173 -1 192 -27 284 -75 270
-232 473 -427 552 -95 39 -248 44 -340 12z m330 -28 c214 -92 370 -309 432
-599 27 -127 21 -373 -11 -493 -58 -220 -163 -383 -315 -489 -88 -62 -175 -90
-281 -91 -96 0 -148 12 -235 58 -323 169 -484 678 -353 1114 74 249 228 431
425 506 55 21 77 24 173 21 89 -2 121 -8 165 -27z"/>
<path d="M846 1805 c-3 -9 -6 -28 -6 -41 0 -22 4 -25 28 -22 22 2 28 8 30 36
2 17 -1 32 -7 32 -5 0 -16 3 -24 6 -8 3 -17 -2 -21 -11z m44 -9 c0 -11 -19
-15 -25 -6 -3 5 1 10 9 10 9 0 16 -2 16 -4z m-10 -36 c0 -5 -4 -10 -10 -10 -5
0 -10 5 -10 10 0 6 5 10 10 10 6 0 10 -4 10 -10z"/>
<path d="M736 1779 c-9 -48 -8 -53 13 -35 13 12 21 14 26 6 15 -25 22 3 7 30
-22 38 -38 38 -46 -1z"/>
<path d="M662 1788 c-25 -25 -6 -68 30 -68 10 0 21 7 25 15 9 24 -6 31 -21 10
-13 -18 -14 -18 -25 3 -11 21 0 39 18 27 5 -3 12 -1 15 4 3 5 -1 12 -10 15
-20 8 -18 8 -32 -6z"/>
<path d="M926 1784 c-27 -27 -12 -64 26 -64 33 0 43 53 14 72 -16 11 -23 10
-40 -8z m44 -19 c0 -16 -27 -32 -37 -22 -3 4 -3 13 0 22 8 20 37 20 37 0z"/>
<path d="M610 1765 c0 -4 7 -19 15 -35 22 -42 38 -37 18 5 -14 30 -33 47 -33
30z"/>
<path d="M997 1744 c-17 -32 -9 -54 20 -54 7 0 13 -4 13 -10 0 -19 16 -10 34
21 22 37 14 51 -9 15 -14 -21 -21 -24 -36 -15 -16 8 -17 14 -8 30 5 11 8 25 6
32 -2 7 -11 -2 -20 -19z"/>
<path d="M558 1735 c-6 -7 23 -65 33 -65 3 0 14 7 25 16 19 15 18 15 -3 9 -17
-5 -25 0 -35 20 -8 14 -17 23 -20 20z"/>
<path d="M498 1696 c-3 -17 -4 -35 -1 -42 8 -22 44 -28 61 -10 22 22 1 71 -28
63 -10 -3 -21 0 -23 7 -2 6 -6 -2 -9 -18z m50 -29 c2 -10 -3 -17 -12 -17 -18
0 -29 16 -21 31 9 14 29 6 33 -14z"/>
<path d="M1081 1689 c-6 -17 -8 -35 -5 -40 6 -10 64 20 64 33 0 11 -18 10 -25
-2 -3 -5 -11 -10 -18 -10 -8 0 -8 3 1 12 14 14 16 38 3 38 -5 0 -14 -14 -20
-31z"/>
<path d="M723 1696 c-313 -101 -479 -589 -342 -999 109 -327 363 -484 593
-368 265 135 401 566 296 938 -50 178 -172 343 -298 405 -77 38 -177 48 -249
24z m193 -13 c155 -52 273 -196 344 -418 32 -100 40 -336 15 -456 -46 -227
-169 -410 -325 -483 -62 -29 -195 -28 -260 1 -311 141 -443 668 -265 1058 108
237 310 359 491 298z"/>
<path d="M755 1646 c-74 -18 -114 -43 -178 -109 -40 -42 -72 -89 -102 -151
-51 -104 -77 -197 -57 -204 7 -2 12 -24 12 -55 l1 -52 25 29 25 28 25 -22 c13
-13 26 -22 28 -19 13 15 36 122 28 132 -15 18 35 129 88 195 107 133 229 136
334 8 49 -60 100 -170 92 -199 -3 -13 3 -52 12 -87 l18 -63 22 28 22 28 30
-28 30 -29 0 51 c0 31 5 53 12 55 17 6 -13 113 -59 205 -38 77 -131 188 -189
223 -34 22 -125 50 -154 49 -8 0 -37 -6 -65 -13z m197 -37 c66 -33 148 -125
195 -215 34 -65 73 -172 73 -199 0 -3 -25 -5 -56 -3 l-56 3 -18 57 c-22 73
-62 140 -117 199 -102 109 -204 111 -307 4 -49 -51 -108 -155 -125 -222 l-12
-43 -54 0 c-30 0 -55 4 -55 9 0 23 45 151 67 191 59 105 136 190 205 226 70
36 182 33 260 -7z m200 -439 l48 0 0 -36 0 -37 -21 27 -21 27 -24 -22 c-18
-17 -24 -19 -28 -8 -2 8 -9 29 -15 48 -14 42 -13 53 1 24 9 -19 19 -23 60 -23z
m-608 -7 c-9 -54 -13 -57 -39 -33 l-23 21 -21 -27 -21 -27 0 37 0 36 50 0 c38
0 50 4 50 15 0 8 2 15 5 15 3 0 3 -17 -1 -37z"/>
<path d="M813 1607 c3 -10 2 -17 -3 -17 -6 0 -10 5 -10 10 0 6 -7 10 -15 10
-12 0 -14 -7 -9 -27 9 -35 14 -42 14 -18 0 15 3 16 12 7 7 -7 16 -12 20 -12
13 0 9 48 -4 56 -8 5 -9 2 -5 -9z"/>
<path d="M745 1585 c7 -33 12 -41 21 -33 3 4 -2 19 -11 35 l-16 28 6 -30z"/>
<path d="M867 1588 c-11 -32 32 -64 49 -36 5 8 2 9 -9 5 -20 -8 -33 11 -19 25
8 8 16 7 28 -3 15 -12 17 -12 12 1 -6 19 -54 26 -61 8z"/>
<path d="M673 1573 c-24 -9 -14 -33 15 -34 16 0 21 -3 12 -6 -8 -3 -18 -10
-21 -16 -4 -5 -15 -5 -29 3 -29 16 -36 6 -20 -27 8 -18 14 -23 18 -14 2 7 -2
18 -9 23 -10 7 -8 8 7 3 25 -6 74 13 74 29 -1 12 -24 47 -31 45 -2 0 -10 -3
-16 -6z"/>
<path d="M942 1552 c-19 -17 -19 -17 -1 -35 21 -19 19 -20 34 28 7 23 -11 27
-33 7z"/>
<path d="M988 1521 c-22 -22 -23 -32 -2 -24 12 4 15 1 12 -13 -6 -30 13 -44
38 -27 32 20 42 -2 12 -27 -13 -11 -18 -19 -11 -20 6 0 15 5 19 11 3 6 15 9
25 6 25 -7 24 2 -4 34 -20 24 -24 25 -45 11 -24 -16 -31 -2 -7 18 11 9 12 16
2 31 -14 23 -17 23 -39 0z m32 -11 c0 -5 -4 -10 -10 -10 -5 0 -10 5 -10 10 0
6 5 10 10 10 6 0 10 -4 10 -10z"/>
<path d="M581 1487 c-14 -14 -15 -30 -1 -22 6 4 18 1 26 -6 22 -18 25 -7 5 18
-14 16 -21 19 -30 10z"/>
<path d="M570 1430 c20 -15 21 -20 8 -20 -9 0 -20 5 -23 10 -5 8 -11 7 -21 -1
-20 -16 -17 -36 5 -49 27 -14 30 -13 23 12 -3 14 -2 19 7 14 6 -4 18 -1 26 7
12 13 12 17 -4 31 -10 9 -24 16 -32 16 -9 0 -4 -8 11 -20z m-20 -30 c0 -5 -5
-10 -11 -10 -5 0 -7 5 -4 10 3 6 8 10 11 10 2 0 4 -4 4 -10z"/>
<path d="M1065 1400 c-11 -5 -14 -9 -7 -9 6 -1 12 -11 12 -23 l0 -21 25 23
c36 33 19 51 -30 30z"/>
<path d="M1120 1367 c0 -8 -9 -19 -20 -22 -11 -3 -20 -10 -20 -15 0 -6 10 -6
23 -1 12 4 28 6 35 3 12 -3 12 0 2 19 -17 33 -20 35 -20 16z"/>
<path d="M496 1353 c-5 -11 -1 -22 10 -30 24 -17 41 -16 48 3 9 25 7 27 -11
13 -15 -12 -16 -12 -10 5 7 17 6 17 -10 5 -15 -12 -16 -12 -10 4 3 9 2 17 -2
17 -5 0 -12 -8 -15 -17z"/>
<path d="M480 1310 c0 -5 5 -10 10 -10 17 0 11 -18 -7 -23 -10 -3 -3 -5 15 -6
36 -1 40 8 14 32 -21 19 -32 22 -32 7z"/>
<path d="M1123 1310 c-24 -10 -31 -34 -13 -45 6 -3 10 2 11 12 0 10 3 13 6 6
7 -20 23 -15 17 5 -5 14 -3 14 10 -2 16 -20 21 -11 10 18 -7 18 -10 18 -41 6z"/>
<path d="M815 1433 c-6 -2 -9 -32 -7 -76 2 -40 -1 -90 -6 -110 -6 -20 -6 -37
-2 -37 5 0 14 18 20 40 13 49 9 188 -5 183z"/>
<path d="M626 1289 c-3 -8 -14 -45 -25 -82 -18 -62 -18 -68 -3 -61 25 10 128
17 156 10 l24 -6 -24 -87 c-37 -136 -65 -216 -82 -235 -8 -10 -12 -24 -9 -33
15 -38 23 -18 107 265 15 52 24 99 19 104 -4 5 -46 9 -93 10 -71 1 -85 4 -81
16 11 38 23 105 20 109 -3 2 -7 -2 -9 -10z"/>
<path d="M840 1142 c0 -5 18 -14 41 -21 22 -7 58 -28 79 -47 26 -24 41 -31 46
-23 8 14 -12 31 -76 64 -57 29 -90 39 -90 27z"/>
<path d="M1156 950 c-17 -47 -17 -52 -1 -100 15 -47 19 -50 48 -49 l32 1 -30
7 c-35 7 -42 29 -21 70 16 31 21 77 10 105 -10 26 -19 18 -38 -34z m34 -7 c-1
-16 -7 -39 -15 -53 -12 -22 -14 -23 -20 -8 -8 20 12 88 26 88 5 0 9 -12 9 -27z"/>
<path d="M501 884 c-45 -58 -16 -128 73 -172 50 -25 50 -28 7 -104 -11 -21
-17 -39 -13 -41 26 -15 127 -37 145 -31 18 6 9 11 -42 25 -35 10 -65 20 -68
22 -2 2 1 16 6 30 8 19 16 25 32 22 29 -6 36 -14 20 -24 -9 -6 -10 -11 -2 -15
19 -12 51 4 51 25 0 11 4 17 10 14 6 -3 7 1 4 9 -3 9 -21 25 -40 37 -19 11
-34 25 -34 30 0 14 11 11 34 -8 20 -18 21 -17 6 2 -30 40 -40 66 -40 104 0 22
-7 48 -17 60 -20 24 -93 41 -93 22 0 -7 -5 -9 -10 -6 -6 4 -8 11 -5 16 13 20
-5 8 -24 -17z m18 -1 c-1 -5 -1 -24 0 -43 1 -35 37 -107 48 -97 3 3 -4 18 -16
33 -29 37 -27 79 5 100 24 16 27 16 52 -3 24 -17 27 -28 30 -83 3 -72 -8 -92
-36 -67 -24 22 -39 22 -21 0 9 -10 0 -7 -23 8 -60 39 -82 94 -58 140 11 19 21
26 19 12z m155 -211 c2 -4 -7 -12 -20 -19 -19 -9 -24 -8 -24 1 0 23 32 37 44
18z"/>
<path d="M820 876 c-9 -25 -67 -66 -93 -66 -9 0 -21 -9 -27 -19 -14 -28 -13
-36 5 -21 8 7 12 17 8 23 -4 7 0 8 12 3 11 -4 22 -1 28 6 6 10 7 9 4 -4 -6
-18 18 -28 72 -28 26 0 32 3 27 16 -3 9 -1 14 5 12 6 -2 10 -8 9 -13 -1 -6 9
-13 22 -17 13 -4 -13 -6 -57 -5 -44 2 -87 6 -95 10 -12 5 -17 1 -19 -15 -6
-50 -1 -86 15 -92 9 -3 9 2 1 23 -11 30 -4 61 13 61 7 0 8 -6 0 -19 -14 -27
-14 -26 25 -69 29 -33 34 -45 31 -77 -2 -21 -11 -44 -20 -50 -8 -7 -12 -15 -8
-19 4 -5 0 -7 -8 -5 -24 5 -65 -12 -50 -21 8 -5 3 -10 -14 -14 -14 -3 -26 -10
-26 -15 0 -14 34 -24 38 -11 2 6 17 8 38 4 19 -3 34 -2 33 2 -5 29 4 34 56 34
44 0 53 -3 49 -15 -4 -8 -9 -13 -13 -10 -4 2 -21 0 -37 -5 -26 -7 -24 -8 21
-9 28 -1 64 3 82 8 20 6 34 6 37 0 2 -5 3 -4 2 3 -2 7 -13 13 -26 13 -24 0
-42 25 -18 26 7 0 -7 10 -32 23 -30 14 -47 18 -52 11 -5 -6 -8 -3 -8 8 0 9 -6
17 -12 17 -7 1 -2 7 12 15 14 8 19 14 11 15 -8 0 -11 6 -7 17 4 9 1 21 -6 26
-10 7 -9 8 2 4 9 -3 24 1 33 8 15 11 12 13 -23 13 -47 1 -60 7 -60 30 0 30 15
42 60 47 25 3 82 17 128 31 46 15 85 24 88 21 6 -6 -59 -47 -74 -47 -7 0 -19
-11 -28 -25 -9 -14 -29 -32 -43 -40 -14 -8 -21 -14 -14 -15 7 0 42 23 78 50
73 55 116 80 139 80 8 0 17 4 20 8 2 4 -32 4 -77 0 -45 -5 -90 -7 -99 -4 -10
2 -16 -1 -15 -6 1 -6 -4 -13 -12 -16 -9 -3 -11 0 -6 8 6 10 2 12 -13 8 -13 -4
-26 0 -34 10 -11 13 -10 15 5 9 9 -3 17 -3 17 2 0 8 -38 24 -52 22 -5 -1 -7 2
-6 7 2 10 -20 62 -27 62 -3 0 -10 -11 -15 -24z m17 -88 c-3 -8 -6 -5 -6 6 -1
11 2 17 5 13 3 -3 4 -12 1 -19z m-17 2 c0 -5 -4 -10 -10 -10 -5 0 -10 5 -10
10 0 6 5 10 10 10 6 0 10 -4 10 -10z m20 -250 c0 -5 -4 -10 -10 -10 -5 0 -10
5 -10 10 0 6 5 10 10 10 6 0 10 -4 10 -10z m-20 -30 c0 -5 -4 -10 -10 -10 -5
0 -10 5 -10 10 0 6 5 10 10 10 6 0 10 -4 10 -10z m50 0 c0 -5 -9 -10 -21 -10
-11 0 -17 5 -14 10 3 6 13 10 21 10 8 0 14 -4 14 -10z m60 -5 c0 -12 -19 -12
-23 0 -4 9 -1 12 9 8 7 -3 14 -7 14 -8z"/>
<path d="M700 593 c-21 -22 -22 -24 -4 -15 23 12 51 43 38 41 -5 -1 -20 -12
-34 -26z"/>
<path d="M748 433 c6 -2 18 -2 25 0 6 3 1 5 -13 5 -14 0 -19 -2 -12 -5z"/>
<path d="M898 433 c6 -2 18 -2 25 0 6 3 1 5 -13 5 -14 0 -19 -2 -12 -5z"/>
<path d="M1130 1645 c-13 -14 -21 -27 -18 -30 2 -3 17 9 33 25 16 17 24 30 19
30 -6 0 -21 -11 -34 -25z"/>
<path d="M465 1652 c-5 -4 -17 -16 -25 -26 -14 -18 -13 -19 4 -13 12 5 26 1
38 -9 10 -10 21 -14 25 -10 4 3 -3 14 -16 22 -12 9 -20 22 -17 30 6 16 5 17
-9 6z"/>
<path d="M1158 1618 c-30 -10 -38 -28 -13 -28 8 0 15 -8 15 -19 0 -23 25 -47
35 -31 12 20 26 10 15 -11 -15 -28 -5 -35 25 -19 27 14 35 36 10 26 -12 -4
-14 0 -9 19 7 28 -3 32 -32 10 -31 -24 -37 -17 -16 19 27 46 21 53 -30 34z"/>
<path d="M410 1590 c0 -15 31 -60 41 -60 5 0 6 7 3 15 -4 10 2 18 17 23 22 8
21 9 -11 20 -41 15 -50 15 -50 2z m40 -20 c0 -5 -2 -10 -4 -10 -3 0 -8 5 -11
10 -3 6 -1 10 4 10 6 0 11 -4 11 -10z"/>
<path d="M372 1538 c-17 -17 -15 -32 7 -52 15 -14 24 -15 40 -6 22 11 28 35
11 45 -5 3 -10 -3 -10 -14 0 -12 -7 -21 -15 -21 -19 0 -33 32 -17 38 13 4 16
22 4 22 -4 0 -13 -5 -20 -12z"/>
<path d="M1235 1491 c-30 -7 -30 -7 -8 -19 14 -7 20 -18 17 -27 -9 -23 5 -18
31 12 34 41 25 49 -40 34z"/>
<path d="M314 1425 c-9 -14 -15 -27 -13 -28 2 -2 17 -9 33 -15 24 -11 31 -11
37 0 14 22 10 47 -10 58 -27 14 -28 13 -47 -15z m45 -4 c13 -8 8 -31 -7 -31
-17 1 -34 19 -28 29 9 13 16 14 35 2z"/>
<path d="M1306 1412 c-2 -4 -1 -14 4 -22 7 -12 12 -12 22 -2 9 9 9 12 -1 12
-7 0 -9 5 -6 10 3 6 2 10 -4 10 -5 0 -12 -4 -15 -8z"/>
<path d="M1323 1359 c-6 -6 -9 -18 -6 -25 3 -8 0 -14 -6 -14 -6 0 -11 10 -11
22 0 16 -3 19 -11 11 -8 -8 -8 -17 1 -33 14 -26 34 -22 38 8 2 12 8 20 13 16
5 -3 7 -10 4 -15 -4 -5 -1 -9 4 -9 12 0 14 11 5 34 -7 19 -16 20 -31 5z"/>
<path d="M280 1353 c0 -4 12 -20 27 -35 l27 -28 -32 6 c-27 6 -33 3 -41 -17
-10 -28 -5 -35 30 -44 32 -8 38 0 43 56 2 24 9 45 15 47 26 9 8 22 -29 22 -22
0 -40 -3 -40 -7z m38 -90 c2 -8 -5 -13 -17 -13 -21 0 -35 13 -24 24 10 10 36
3 41 -11z"/>
<path d="M1313 1272 c13 -14 14 -21 5 -30 -7 -7 -9 -12 -5 -12 15 0 67 31 67
39 0 12 -26 21 -57 21 -25 0 -25 -1 -10 -18z"/>
<path d="M245 1220 c-5 -8 28 -20 59 -20 26 0 16 9 -23 20 -17 4 -33 5 -36 0z"/>
<path d="M1348 1223 c-16 -2 -28 -9 -28 -15 0 -5 7 -8 15 -4 17 6 21 -9 5 -19
-24 -15 -9 -31 25 -27 39 5 48 22 13 22 -21 1 -22 2 -5 14 17 13 24 37 10 35
-5 -1 -20 -4 -35 -6z"/>
<path d="M237 1176 c-3 -8 1 -22 8 -33 13 -16 16 -16 25 -3 5 8 11 20 13 25 3
6 8 7 12 3 4 -4 2 -14 -5 -23 -10 -12 -10 -15 4 -15 10 0 16 9 16 24 0 36 -20
43 -42 15 -19 -24 -19 -24 -13 -1 7 24 -9 31 -18 8z"/>
<path d="M234 1107 c-12 -32 0 -52 34 -55 18 -2 32 1 32 7 0 6 -7 11 -15 11
-20 0 -19 17 3 29 15 9 15 10 0 11 -9 0 -23 3 -32 6 -9 4 -18 0 -22 -9z m26
-22 c0 -8 -4 -15 -10 -15 -5 0 -10 7 -10 15 0 8 5 15 10 15 6 0 10 -7 10 -15z"/>
<path d="M1362 1112 l-32 -3 26 -29 c31 -32 54 -29 54 5 0 29 -5 31 -48 27z
m33 -21 c3 -5 1 -12 -5 -16 -5 -3 -10 1 -10 9 0 18 6 21 15 7z"/>
<path d="M1340 1050 c0 -5 5 -12 10 -15 8 -5 7 -11 -1 -21 -6 -8 -9 -17 -6
-21 9 -9 68 18 65 29 -5 13 -68 39 -68 28z"/>
<path d="M226 1032 c-4 -7 -4 -21 -1 -32 5 -15 15 -20 41 -20 31 0 34 2 34 31
0 18 -4 28 -10 24 -6 -4 -8 -10 -5 -15 3 -5 1 -11 -5 -15 -5 -3 -10 1 -10 9 0
22 -20 20 -21 -1 -1 -12 -4 -9 -8 7 -5 17 -9 21 -15 12z"/>
<path d="M1340 950 c0 -28 3 -30 35 -30 32 0 35 2 35 30 0 28 -3 30 -35 30
-32 0 -35 -2 -35 -30z m30 -5 c0 -8 -4 -15 -10 -15 -5 0 -10 7 -10 15 0 8 5
15 10 15 6 0 10 -7 10 -15z m30 5 c0 -5 -4 -10 -10 -10 -5 0 -10 5 -10 10 0 6
5 10 10 10 6 0 10 -4 10 -10z"/>
<path d="M230 961 c0 -5 10 -13 22 -17 l23 -7 -25 -10 c-14 -5 -20 -11 -14
-13 27 -11 80 26 57 39 -20 11 -63 16 -63 8z"/>
<path d="M1333 894 c-3 -7 -3 -21 0 -31 4 -16 6 -16 12 3 5 15 13 20 30 17 12
-3 25 0 29 5 3 6 -10 12 -30 14 -23 3 -38 0 -41 -8z"/>
<path d="M245 890 c-16 -7 -13 -9 18 -9 20 -1 37 4 37 9 0 12 -27 12 -55 0z"/>
<path d="M240 850 c0 -5 7 -10 17 -10 15 0 15 -1 0 -18 -21 -23 -15 -30 23
-24 31 4 42 22 13 22 -14 0 -14 2 2 20 18 20 17 20 -18 20 -21 0 -37 -4 -37
-10z"/>
<path d="M1323 824 c-9 -24 10 -49 37 -49 31 0 48 28 31 49 -17 21 -60 21 -68
0z m55 -17 c2 -12 -3 -17 -17 -17 -12 0 -21 6 -21 13 0 31 32 34 38 4z"/>
<path d="M273 780 c-33 -13 -28 -23 6 -15 41 9 51 -13 12 -28 -17 -6 -31 -15
-31 -19 0 -10 1 -10 39 3 32 11 41 35 19 57 -14 14 -15 14 -45 2z"/>
<path d="M1359 746 c9 -11 9 -15 -1 -19 -8 -4 -7 -6 5 -6 22 -1 22 25 1 33
-14 5 -15 4 -5 -8z"/>
<path d="M334 585 c3 -9 -1 -18 -9 -21 -8 -4 -15 -10 -15 -16 0 -5 4 -7 9 -3
5 3 16 -4 24 -15 12 -18 15 -18 20 -5 4 8 14 15 23 15 13 0 14 3 4 15 -6 8 -9
19 -5 26 5 8 1 9 -14 4 -12 -4 -21 -2 -21 4 0 6 -5 11 -11 11 -6 0 -8 -7 -5
-15z"/>
<path d="M1285 590 c-3 -5 -12 -7 -20 -3 -10 3 -15 -1 -15 -15 0 -11 -6 -23
-12 -25 -7 -3 -5 -6 6 -6 10 -1 25 -9 32 -18 12 -16 13 -16 14 -2 0 9 8 20 17
23 14 6 15 9 4 16 -8 4 -11 15 -8 24 7 17 -8 22 -18 6z"/>
<path d="M585 291 c-19 -38 -19 -52 0 -27 15 19 15 19 15 -2 0 -24 9 -28 28
-12 9 7 9 7 2 -2 -12 -14 -13 -28 -2 -28 10 0 44 62 37 68 -3 4 -15 1 -25 -6
-17 -11 -20 -10 -20 7 0 33 -18 34 -35 2z"/>
<path d="M1010 305 c-7 -8 -10 -22 -6 -30 6 -17 -9 -21 -19 -5 -3 6 -11 10
-17 10 -6 0 -1 -11 12 -25 35 -37 50 -33 43 13 l-5 37 26 -30 c29 -35 34 -26
9 16 -20 33 -26 35 -43 14z"/>
<path d="M670 250 c-9 -16 -8 -25 1 -36 14 -17 45 -19 55 -3 4 8 0 9 -15 4
-15 -4 -23 -1 -27 10 -10 25 12 41 32 24 15 -12 17 -12 12 1 -8 24 -45 24 -58
0z"/>
<path d="M930 261 c0 -5 -10 -7 -22 -4 -20 4 -21 3 -5 -7 12 -8 15 -19 11 -38
-5 -24 -4 -25 9 -10 10 13 17 14 25 6 6 -6 15 -8 19 -4 4 4 0 12 -10 17 -12 7
-16 17 -12 30 4 11 2 19 -4 19 -6 0 -11 -4 -11 -9z"/>
<path d="M750 248 c0 -7 -3 -23 -6 -35 -4 -14 -2 -23 5 -23 6 0 11 8 12 18 0
12 3 10 10 -8 10 -24 11 -24 21 -5 11 19 11 19 19 0 7 -19 8 -19 8 2 1 12 4
28 7 37 4 10 1 16 -9 16 -9 0 -19 -10 -23 -22 -7 -23 -7 -22 -16 5 -10 27 -28
37 -28 15z"/>
<path d="M840 231 c0 -32 11 -51 30 -51 11 0 22 5 25 10 3 6 -3 10 -14 10 -16
0 -21 6 -21 25 0 14 -4 25 -10 25 -5 0 -10 -9 -10 -19z"/>
<path d="M2050 1382 c0 -77 17 -104 65 -104 46 0 63 26 67 103 2 42 -1 69 -7
69 -6 0 -9 -26 -7 -65 4 -75 -6 -95 -48 -95 -42 0 -52 20 -48 95 2 47 0 65 -9
65 -9 0 -13 -20 -13 -68z"/>
<path d="M2268 1443 c8 -3 12 -30 12 -84 0 -43 3 -79 8 -79 4 0 6 20 4 44 -8
95 -2 97 53 21 55 -78 52 -80 57 43 2 37 -1 62 -7 62 -6 0 -9 -19 -7 -44 8
-91 1 -94 -51 -22 -28 38 -56 66 -65 65 -11 0 -12 -2 -4 -6z"/>
<path d="M2505 1438 c-2 -7 -5 -46 -7 -86 -2 -52 0 -72 10 -72 9 0 12 24 12
85 0 79 -5 102 -15 73z"/>
<path d="M2621 1398 c12 -29 26 -68 32 -85 6 -18 13 -33 17 -33 8 0 72 161 67
166 -2 2 -15 -23 -28 -57 -13 -34 -28 -61 -34 -60 -5 1 -20 27 -31 58 -12 32
-27 59 -33 61 -7 2 -2 -18 10 -50z"/>
<path d="M2818 1365 l-3 -85 53 0 c43 0 52 3 51 18 0 10 -3 12 -6 5 -2 -7 -20
-13 -39 -13 -32 0 -34 2 -34 35 0 30 3 35 24 35 13 0 27 -6 29 -12 3 -7 6 -4
6 8 1 17 -4 20 -29 16 -29 -4 -30 -3 -30 33 0 37 1 37 35 33 19 -2 35 0 35 4
0 4 -20 8 -44 8 l-45 0 -3 -85z"/>
<path d="M2998 1365 c-2 -70 0 -85 12 -85 12 0 14 14 12 80 -3 83 1 90 42 74
22 -8 20 -50 -3 -66 -18 -13 -17 -14 6 -50 13 -21 28 -38 34 -38 7 0 5 9 -5
23 -27 37 -29 47 -12 66 9 10 16 25 16 34 0 22 -38 47 -71 47 -28 0 -28 0 -31
-85z"/>
<path d="M3196 1434 c-25 -24 -19 -42 24 -72 50 -34 56 -72 10 -72 -17 0 -33
7 -39 18 -9 15 -10 15 -11 -4 0 -28 46 -39 78 -18 33 21 27 45 -20 85 -29 25
-39 41 -35 52 9 23 54 22 60 0 4 -14 5 -12 6 5 1 18 -4 22 -28 22 -16 0 -37
-7 -45 -16z"/>
<path d="M3365 1363 c0 -67 3 -83 15 -83 12 0 14 14 12 83 -2 56 -7 84 -15 84
-8 0 -12 -26 -12 -84z"/>
<path d="M3485 1365 l0 -85 48 0 c58 0 97 32 97 79 0 49 -38 84 -96 87 l-49 3
0 -84z m102 49 c21 -21 24 -32 19 -62 -6 -43 -28 -62 -68 -62 l-28 0 0 75 c0
74 0 75 25 75 14 0 37 -12 52 -26z"/>
<path d="M3736 1395 c-14 -33 -32 -72 -40 -87 -14 -27 -14 -28 7 -28 16 0 18
3 8 9 -11 7 -10 12 6 28 11 11 18 24 15 31 -2 6 3 23 12 39 l14 28 12 -29 c6
-16 9 -35 6 -43 -3 -7 1 -13 9 -13 9 0 15 -10 15 -25 0 -19 5 -25 23 -25 12 0
17 4 12 8 -6 4 -25 43 -42 87 l-32 80 -25 -60z"/>
<path d="M3915 1365 l0 -85 42 0 c58 0 97 34 97 85 0 37 -29 75 -57 75 -6 0
-3 -6 6 -12 55 -43 31 -138 -35 -138 l-28 0 0 74 c0 69 2 75 23 79 15 3 10 5
-13 6 l-35 1 0 -85z"/>
<path d="M1755 955 c0 -269 1 -378 2 -242 2 137 2 357 0 490 -1 133 -2 22 -2
-248z"/>
<path d="M4335 955 c0 -269 1 -378 2 -242 2 137 2 357 0 490 -1 133 -2 22 -2
-248z"/>
<path d="M2930 1193 c-22 -28 -11 -46 12 -21 35 37 41 48 25 48 -9 0 -25 -12
-37 -27z"/>
<path d="M2114 1139 c-48 -13 -76 -51 -82 -109 -9 -97 41 -151 142 -152 65 -1
76 5 75 40 0 26 -1 26 -11 5 -22 -45 -97 -38 -137 13 -27 34 -29 119 -3 150
39 49 90 56 127 19 l25 -24 0 32 c0 32 0 32 -53 33 -28 1 -66 -2 -83 -7z"/>
<path d="M2417 1143 c-3 -5 -26 -60 -52 -123 -25 -63 -54 -121 -63 -127 -13
-11 -9 -13 29 -12 24 1 36 3 27 6 -21 5 -22 12 -8 47 9 24 15 26 64 26 52 0
55 -1 65 -31 14 -40 14 -37 -6 -42 -10 -3 6 -5 36 -6 45 -1 52 1 40 12 -9 6
-37 67 -63 135 -44 113 -57 134 -69 115z m13 -88 c5 -14 13 -37 16 -50 6 -23
3 -25 -30 -25 -41 0 -44 9 -21 64 18 43 22 44 35 11z"/>
<path d="M2550 1117 c0 -17 4 -26 10 -22 6 4 8 11 5 16 -4 5 12 9 34 9 l41 0
0 -114 c0 -111 -1 -115 -22 -119 -13 -2 9 -4 47 -4 39 0 60 2 48 4 -22 4 -23
8 -23 119 l0 114 35 0 c24 0 35 -5 35 -15 0 -8 5 -15 10 -15 6 0 10 12 10 28
l0 27 -115 0 -115 0 0 -28z"/>
<path d="M2891 1132 c-44 -23 -71 -74 -71 -131 0 -37 6 -49 39 -82 21 -22 49
-39 62 -40 73 -4 108 13 139 64 67 109 -59 249 -169 189z m101 -27 c52 -48 44
-161 -15 -199 -70 -47 -134 69 -93 168 25 59 65 71 108 31z"/>
<path d="M3615 1139 c-82 -23 -121 -129 -73 -199 29 -43 66 -62 121 -62 63 -1
87 9 87 38 0 13 -4 24 -10 24 -5 0 -10 -7 -10 -15 0 -9 -12 -20 -26 -26 -97
-36 -173 106 -103 195 34 43 129 44 129 1 0 -8 5 -15 10 -15 6 0 10 15 10 33
0 32 0 32 -53 33 -28 1 -66 -2 -82 -7z"/>
<path d="M3861 1021 c-33 -82 -59 -131 -69 -134 -9 -3 3 -5 28 -6 31 0 41 2
30 9 -11 7 -12 15 -4 37 9 26 13 28 63 28 51 0 55 -2 64 -29 7 -21 6 -30 -4
-37 -9 -6 3 -9 33 -9 l47 0 -18 33 c-10 17 -36 78 -57 135 -21 56 -43 102 -49
102 -6 0 -35 -58 -64 -129z m72 16 c9 -23 17 -46 17 -50 0 -4 -18 -7 -41 -7
-29 0 -40 4 -36 13 2 6 10 29 18 50 7 20 15 37 19 37 3 0 13 -19 23 -43z"/>
<path d="M3143 1133 c15 -4 17 -19 17 -123 0 -104 -2 -119 -17 -123 -10 -3 26
-5 80 -6 l97 -1 0 25 c0 14 -4 25 -10 25 -5 0 -10 -7 -10 -15 0 -11 -12 -15
-45 -15 l-45 0 0 114 c0 101 2 115 18 119 9 3 -10 5 -43 5 -33 0 -52 -2 -42
-5z"/>
<path d="M3373 1133 c15 -4 17 -19 17 -123 0 -104 -2 -119 -17 -123 -10 -3 9
-5 42 -5 33 0 52 2 43 5 -16 4 -18 19 -18 123 0 104 2 119 18 123 9 3 -10 5
-43 5 -33 0 -52 -2 -42 -5z"/>
<path d="M2314 732 c-32 -25 -47 -60 -39 -90 7 -30 32 -62 48 -62 6 0 2 9 -9
21 -12 13 -19 35 -19 61 0 33 6 45 30 64 17 13 26 24 20 24 -5 0 -20 -8 -31
-18z"/>
<path d="M2383 727 c48 -46 28 -147 -30 -147 -9 0 -14 -3 -10 -6 9 -10 46 6
67 29 28 29 27 88 -2 114 -35 31 -57 40 -25 10z"/>
<path d="M3955 715 c-9 -22 -25 -60 -36 -84 -22 -51 -22 -51 -7 -51 6 0 8 3 5
6 -3 4 -2 15 4 26 16 29 83 22 87 -9 2 -13 10 -23 17 -23 11 0 8 16 -11 68
-46 118 -40 112 -59 67z m30 -47 c6 -25 5 -28 -19 -28 -29 0 -31 7 -14 45 13
29 23 23 33 -17z"/>
<path d="M2050 660 c0 -47 4 -80 10 -80 10 0 14 53 10 114 -1 16 4 33 12 37 9
6 7 9 -9 9 -22 0 -23 -4 -23 -80z"/>
<path d="M2113 730 c21 -14 22 -49 2 -57 -13 -5 -13 -8 5 -20 25 -17 26 -48 3
-62 -16 -9 -16 -10 -2 -11 28 0 44 27 31 55 -7 14 -17 25 -23 25 -7 0 -4 9 7
21 21 23 10 52 -22 57 -18 3 -18 2 -1 -8z"/>
<path d="M2570 660 c0 -47 4 -80 10 -80 6 0 10 33 10 80 0 47 -4 80 -10 80 -6
0 -10 -33 -10 -80z"/>
<path d="M2785 660 c0 -47 4 -80 10 -80 6 0 10 33 10 80 0 47 -4 80 -10 80 -6
0 -10 -33 -10 -80z"/>
<path d="M2973 660 c17 -44 34 -80 38 -80 8 0 42 81 36 87 -3 2 -10 -11 -16
-29 l-12 -33 -14 25 c-7 14 -19 44 -26 68 -6 23 -18 42 -24 42 -8 0 -2 -27 18
-80z"/>
<path d="M3060 726 c0 -8 -3 -23 -6 -33 -3 -10 2 -7 10 7 18 30 20 40 6 40 -5
0 -10 -6 -10 -14z"/>
<path d="M3211 660 c-1 -60 1 -80 11 -80 10 0 13 21 13 80 0 50 -4 80 -11 80
-6 0 -11 -32 -13 -80z"/>
<path d="M3398 655 c-36 -85 -42 -111 -13 -55 13 25 22 30 50 30 28 0 38 -5
47 -25 22 -48 28 -24 7 28 -12 28 -27 64 -33 80 -5 15 -13 27 -17 27 -3 0 -22
-38 -41 -85z m57 13 c6 -25 5 -28 -19 -28 -29 0 -31 6 -16 46 12 31 25 24 35
-18z"/>
<path d="M3650 653 l4 -88 6 70 5 70 45 -62 c25 -34 48 -63 53 -63 4 0 6 37 5
83 l-1 82 -6 -65 -6 -65 -45 62 c-25 34 -49 63 -55 63 -6 0 -8 -33 -5 -87z"/>
</g>
</svg>
